<svg width="80" height="80" viewBox="0 0 80 80" fill="none" xmlns="http://www.w3.org/2000/svg">
<g clip-path="url(#clip0_37_116)">
<rect width="80" height="80" rx="12" fill="#317FC4"/>
<path d="M33 39.5V53.5C33 57.0899 35.9101 60 39.5 60C43.0899 60 46 57.0899 46 53.5V39.5C46 35.9101 43.0899 33 39.5 33C35.9101 33 33 35.9101 33 39.5Z" stroke="black" stroke-width="4" stroke-linecap="round"/>
<path d="M39.5139 27.0138C43.096 27.0062 45.9937 24.0684 45.9861 20.4862C45.9785 16.904 43.0683 13.9786 39.4861 13.9862C35.9039 13.9938 33.0062 16.9316 33.0139 20.5138C33.0215 24.096 35.9317 27.0214 39.5139 27.0138Z" stroke="black" stroke-width="4" stroke-linecap="round"/>
</g>
<defs>
<clipPath id="clip0_37_116">
<rect width="80" height="80" fill="white"/>
</clipPath>
</defs>
</svg>
