<svg width="80" height="80" viewBox="0 0 80 80" fill="none" xmlns="http://www.w3.org/2000/svg">
<path d="M26 34.5C26 40.603 30.8795 45.8637 33.1935 48.0154C33.9258 48.6963 34.3842 49.637 34.3842 50.637V51.553C34.3842 52.1243 33.8158 52.5866 33.8158 53.1579C33.8158 53.7292 34.3842 54.1915 34.3842 54.7628V57.3825C34.3842 58.2071 34.4715 59.0862 35.0214 59.7006C35.1775 59.875 35.3493 60 35.5211 60H43.4789C43.6507 60 43.8225 59.875 43.9786 59.7006C44.5285 59.0862 44.6158 58.2071 44.6158 57.3825V54.7628C44.6158 54.1915 45.1842 53.7292 45.1842 53.1579C45.1842 52.5866 44.6158 52.1243 44.6158 51.553V50.637C44.6158 49.637 45.0742 48.6963 45.8065 48.0154C48.1206 45.8637 53 40.603 53 34.5C53 26.5 50.5 19 40 19C29.5 19 26 26.5 26 34.5Z" stroke="black" stroke-width="4" stroke-linecap="round"/>
<path d="M31.5 32.5V32.3852C31.5 29.1327 33.4802 26.2079 36.5 25" stroke="black" stroke-width="4" stroke-linecap="round"/>
</svg>
