<svg width="120" height="120" viewBox="0 0 120 120" fill="none" xmlns="http://www.w3.org/2000/svg">
<g clip-path="url(#clip0_37_116)">
<rect width="120" height="120" fill="#1E1E1E"/>
<g filter="url(#filter0_ddiiiif_37_116)">
<rect x="25" y="25" width="70" height="70" rx="20" fill="#1E1E1E"/>
</g>
<g filter="url(#filter1_ii_37_116)">
<path d="M55.0279 73.2022C54.9396 73.7253 55.0627 74.2619 55.3701 74.6942C55.6775 75.1265 56.144 75.419 56.667 75.5073C57.19 75.5956 57.7267 75.4725 58.159 75.1651C58.5913 74.8577 58.8838 74.3912 58.9721 73.8682C59.1416 72.8642 59.3111 71.8602 59.4806 70.8562C61.0063 61.8203 62.532 52.7843 64.0577 43.7484C64.2112 42.8392 64.3607 41.9293 64.5061 41.0187C64.5073 40.9914 64.4927 41.0306 64.4407 41.043C64.3982 41.0701 64.2268 41.0292 64.2431 41.0081C66.1057 42.2154 67.9677 43.7566 68.5882 45.2656C68.9609 46.2685 69.0759 46.9337 68.7849 47.9272C68.4494 48.8866 67.8678 50.8639 68.3537 52.3357C69.1528 54.8948 70.7495 56.3124 72.2662 57.8059C73.036 58.5197 73.828 59.1866 74.6669 59.8165C74.7693 59.8913 74.8958 59.9315 75.0241 59.9219C75.1523 59.9125 75.2709 59.855 75.355 59.7608C75.4391 59.6667 75.4829 59.5424 75.478 59.4139C75.473 59.2855 75.419 59.1642 75.3331 59.0708C75.3331 59.0708 75.3331 59.0708 75.3331 59.0708C74.6752 58.3354 74.0285 57.5457 73.43 56.7521C72.2541 55.1734 71.0313 53.3337 70.8463 51.8474C70.7332 50.812 71.0208 50.2873 71.621 48.9392C72.2719 47.5795 72.2588 45.5869 71.8118 44.2133C70.7376 41.0531 68.5077 39.3725 66.4173 37.8099C64.2742 36.143 60.8272 37.8915 60.5862 40.3569C60.4246 41.2647 60.2671 42.1732 60.1135 43.0824C58.5879 52.1184 57.0622 61.1543 55.5365 70.1903C55.367 71.1942 55.1974 72.1982 55.0279 73.2022Z" fill="#2F2F2F"/>
<ellipse cx="52.2" cy="75.3733" rx="7.2" ry="6.12676" fill="#2F2F2F"/>
</g>
</g>
<defs>
<filter id="filter0_ddiiiif_37_116" x="13" y="13" width="97" height="97" filterUnits="userSpaceOnUse" color-interpolation-filters="sRGB">
<feFlood flood-opacity="0" result="BackgroundImageFix"/>
<feColorMatrix in="SourceAlpha" type="matrix" values="0 0 0 0 0 0 0 0 0 0 0 0 0 0 0 0 0 0 127 0" result="hardAlpha"/>
<feOffset dx="5" dy="5"/>
<feGaussianBlur stdDeviation="5"/>
<feComposite in2="hardAlpha" operator="out"/>
<feColorMatrix type="matrix" values="0 0 0 0 0 0 0 0 0 0 0 0 0 0 0 0 0 0 0.1 0"/>
<feBlend mode="normal" in2="BackgroundImageFix" result="effect1_dropShadow_37_116"/>
<feColorMatrix in="SourceAlpha" type="matrix" values="0 0 0 0 0 0 0 0 0 0 0 0 0 0 0 0 0 0 127 0" result="hardAlpha"/>
<feOffset dx="-2" dy="-2"/>
<feGaussianBlur stdDeviation="5"/>
<feComposite in2="hardAlpha" operator="out"/>
<feColorMatrix type="matrix" values="0 0 0 0 0.212891 0 0 0 0 0.212891 0 0 0 0 0.212891 0 0 0 0.25 0"/>
<feBlend mode="normal" in2="effect1_dropShadow_37_116" result="effect2_dropShadow_37_116"/>
<feBlend mode="normal" in="SourceGraphic" in2="effect2_dropShadow_37_116" result="shape"/>
<feColorMatrix in="SourceAlpha" type="matrix" values="0 0 0 0 0 0 0 0 0 0 0 0 0 0 0 0 0 0 127 0" result="hardAlpha"/>
<feOffset dx="12" dy="12"/>
<feGaussianBlur stdDeviation="19"/>
<feComposite in2="hardAlpha" operator="arithmetic" k2="-1" k3="1"/>
<feColorMatrix type="matrix" values="0 0 0 0 0.0948956 0 0 0 0 0.0948956 0 0 0 0 0.0948956 0 0 0 0.9 0"/>
<feBlend mode="normal" in2="shape" result="effect3_innerShadow_37_116"/>
<feColorMatrix in="SourceAlpha" type="matrix" values="0 0 0 0 0 0 0 0 0 0 0 0 0 0 0 0 0 0 127 0" result="hardAlpha"/>
<feOffset dx="-12" dy="-12"/>
<feGaussianBlur stdDeviation="15"/>
<feComposite in2="hardAlpha" operator="arithmetic" k2="-1" k3="1"/>
<feColorMatrix type="matrix" values="0 0 0 0 0.154579 0 0 0 0 0.154579 0 0 0 0 0.154579 0 0 0 0.9 0"/>
<feBlend mode="normal" in2="effect3_innerShadow_37_116" result="effect4_innerShadow_37_116"/>
<feColorMatrix in="SourceAlpha" type="matrix" values="0 0 0 0 0 0 0 0 0 0 0 0 0 0 0 0 0 0 127 0" result="hardAlpha"/>
<feOffset dx="12" dy="-12"/>
<feGaussianBlur stdDeviation="15"/>
<feComposite in2="hardAlpha" operator="arithmetic" k2="-1" k3="1"/>
<feColorMatrix type="matrix" values="0 0 0 0 0.0116812 0 0 0 0 0.0116812 0 0 0 0 0.0116812 0 0 0 0.15 0"/>
<feBlend mode="normal" in2="effect4_innerShadow_37_116" result="effect5_innerShadow_37_116"/>
<feColorMatrix in="SourceAlpha" type="matrix" values="0 0 0 0 0 0 0 0 0 0 0 0 0 0 0 0 0 0 127 0" result="hardAlpha"/>
<feOffset dx="-12" dy="12"/>
<feGaussianBlur stdDeviation="15"/>
<feComposite in2="hardAlpha" operator="arithmetic" k2="-1" k3="1"/>
<feColorMatrix type="matrix" values="0 0 0 0 0.105732 0 0 0 0 0.105732 0 0 0 0 0.105732 0 0 0 0.15 0"/>
<feBlend mode="normal" in2="effect5_innerShadow_37_116" result="effect6_innerShadow_37_116"/>
<feGaussianBlur stdDeviation="0.6" result="effect7_foregroundBlur_37_116"/>
</filter>
<filter id="filter1_ii_37_116" x="43" y="35.1534" width="35.4784" height="49.3466" filterUnits="userSpaceOnUse" color-interpolation-filters="sRGB">
<feFlood flood-opacity="0" result="BackgroundImageFix"/>
<feBlend mode="normal" in="SourceGraphic" in2="BackgroundImageFix" result="shape"/>
<feColorMatrix in="SourceAlpha" type="matrix" values="0 0 0 0 0 0 0 0 0 0 0 0 0 0 0 0 0 0 127 0" result="hardAlpha"/>
<feOffset dx="3" dy="3"/>
<feGaussianBlur stdDeviation="3"/>
<feComposite in2="hardAlpha" operator="arithmetic" k2="-1" k3="1"/>
<feColorMatrix type="matrix" values="0 0 0 0 0 0 0 0 0 0 0 0 0 0 0 0 0 0 0.6 0"/>
<feBlend mode="normal" in2="shape" result="effect1_innerShadow_37_116"/>
<feColorMatrix in="SourceAlpha" type="matrix" values="0 0 0 0 0 0 0 0 0 0 0 0 0 0 0 0 0 0 127 0" result="hardAlpha"/>
<feOffset dx="-2" dy="-2"/>
<feGaussianBlur stdDeviation="5"/>
<feComposite in2="hardAlpha" operator="arithmetic" k2="-1" k3="1"/>
<feColorMatrix type="matrix" values="0 0 0 0 0 0 0 0 0 0 0 0 0 0 0 0 0 0 0.6 0"/>
<feBlend mode="normal" in2="effect1_innerShadow_37_116" result="effect2_innerShadow_37_116"/>
</filter>
<clipPath id="clip0_37_116">
<rect width="120" height="120" fill="white"/>
</clipPath>
</defs>
</svg>
